<svg xmlns="http://www.w3.org/2000/svg" version="1.1" xmlns:xlink="http://www.w3.org/1999/xlink"
    width="512" height="512" x="0" y="0" viewBox="0 0 511.999 511.999"
    style="enable-background:new 0 0 512 512" xml:space="preserve" class=""><g><path d="M432.154 203.675c-25.384-25.386-60.519-38.421-96.396-35.77-.555.043-1.124.063-1.691.054-24.87-.252-71.86-5.942-107.145-41.23-7.747-7.746-14.529-16.576-20.155-26.244a20.22 20.22 0 0 1-1.271-2.598c-4.219-10.431-10.432-19.792-18.466-27.827-32.73-32.73-85.982-32.73-118.71-.002-32.73 32.732-32.731 85.987-.002 118.715l2.355-2.355 19.404 19.314-2.356 2.355 169.966 170.054c23.265 23.266 54.245 36.077 87.234 36.077s63.968-12.811 87.234-36.077c48.1-48.098 48.1-126.365-.001-174.466z" style="" fill="#e95353" data-original="#e95353"></path><path d="m37.352 217.519 189.369 189.368c65.175 65.174 171.223 65.174 236.397 0 25.65-25.65 41.197-57.63 46.659-90.958 8.414 51.357-7.135 105.914-46.659 145.441-65.174 65.174-171.223 65.174-236.397 0L37.352 272.004C5.494 240.145-5.983 195.509 2.917 154.442c5.013 23.132 16.49 45.133 34.435 63.077z" style="" fill="#c13636" data-original="#c13636" class=""></path><path d="M37.354 39.097c49.8-49.799 130.835-49.799 180.637.002 11.766 11.767 20.972 25.432 27.382 40.642 3.576 5.911 7.78 11.296 12.512 16.028 24.681 24.684 60.503 28.123 75.717 28.392 48.217-3.26 95.367 14.401 129.516 48.55 65.176 65.174 65.176 171.221 0 236.397-65.174 65.174-171.223 65.174-236.397 0L37.352 219.74c-49.804-49.802-49.802-130.84.002-180.643zm52.72 166.639L260.039 375.79c46.802 46.802 122.956 46.802 169.758 0s46.805-122.956 0-169.76c-24.699-24.699-58.883-37.385-93.79-34.803-.657.05-1.319.07-1.977.063-25.38-.255-73.348-6.083-109.465-42.206-7.945-7.943-14.907-17.005-20.681-26.926a23.453 23.453 0 0 1-1.479-3.021c-4.05-10.015-10.018-19.005-17.733-26.72-31.432-31.431-82.57-31.431-114.001-.002-31.43 31.432-31.434 82.574-.002 114.005" style="" fill="#d33d3d" data-original="#d33d3d" class=""></path><path d="M273.64 362.399 103.675 192.345l-19.404-19.314c-29.289-29.288-31.269-75.685-5.972-107.308a80.98 80.98 0 0 0-7.626 6.694c-31.43 31.432-31.434 82.574-.002 114.005l19.404 19.314L260.039 375.79c46.802 46.802 122.956 46.802 169.758 0a121.62 121.62 0 0 0 5.874-6.317c-47.109 39.588-117.72 37.235-162.031-7.074z" style="opacity:0.15;enable-background:new ;" fill="#202020" data-original="#202020"></path><path d="M345.05 242.63c-28.505 0-51.61 23.106-51.61 51.608 0 28.503 23.106 51.61 51.61 51.61 28.503 0 51.608-23.108 51.608-51.61-.001-28.502-23.106-51.608-51.608-51.608zm0 67.018c-8.511 0-15.409-6.898-15.409-15.407 0-8.511 6.898-15.409 15.409-15.409 8.509 0 15.407 6.898 15.407 15.409 0 8.509-6.898 15.407-15.407 15.407z" style="" fill="#fff1ce" data-original="#fff1ce"></path></g></svg>